<svg width="13" height="11" viewBox="0 0 13 11" fill="none" xmlns="http://www.w3.org/2000/svg">
<path d="M7.4248 0.810277L11.8773 5.06043C11.9975 5.17506 12.0655 5.33398 12.0655 5.49999C12.0655 5.666 11.9975 5.82492 11.8773 5.93955L7.4248 10.1897C7.18211 10.4206 6.79788 10.4118 6.56625 10.1692C6.33461 9.92882 6.34329 9.54302 6.58679 9.31058L9.94309 6.10715L1.33934 6.10715C1.00414 6.10715 0.732178 5.8352 0.732178 5.49999C0.732178 5.16478 1.00414 4.89283 1.33934 4.89283L9.94309 4.89283L6.58681 1.6894C6.34331 1.45777 6.33461 1.07196 6.56624 0.830844C6.79788 0.58813 7.18211 0.579427 7.4248 0.810277Z" fill="white"/>
</svg>
