<svg width="9" height="11" viewBox="0 0 9 11" fill="none" xmlns="http://www.w3.org/2000/svg">
<path d="M5.4375 6.4375H3.5625C1.664 6.4375 0.125 7.9765 0.125 9.875C0.125 10.2202 0.404805 10.5 0.75 10.5H8.25C8.5952 10.5 8.875 10.2202 8.875 9.875C8.875 7.9765 7.336 6.4375 5.4375 6.4375ZM1.08191 9.5625C1.23623 8.33096 2.28984 7.375 3.5625 7.375H5.4375C6.71016 7.375 7.76377 8.33096 7.91809 9.5625H1.08191ZM4.5 5.5C5.88072 5.5 7 4.38068 7 3C7 1.61928 5.88072 0.5 4.5 0.5C3.11928 0.5 2 1.61928 2 3C2 4.38068 3.11928 5.5 4.5 5.5ZM4.5 1.4375C5.36154 1.4375 6.0625 2.13842 6.0625 3C6.0625 3.86154 5.36154 4.5625 4.5 4.5625C3.63846 4.5625 2.9375 3.86154 2.9375 3C2.9375 2.13842 3.63846 1.4375 4.5 1.4375Z" fill="#006E3E"/>
</svg>
